# xmcd
#
# Track frame offsets:
#	150
#	17028
#	30680
#	45125
#	60127
#	74054
#	89825
#	102877
#	120566
#	134519
#	146066
#	162767
#	174848
#	190899
#	207875
#
# Disc length: 2956 seconds
#
# Revision: 0
# Processed by: cddbd v1.5PL3 Copyright (c) Steve Scherf et al.
# Submitted via: audiograbber 1.83.01
#
DISCID=cb0b8a0f
DTITLE=Alan Jackson - Karaoke CB90003
DYEAR=1900
DGENRE=
TTITLE0=Alan Jackson - Here In The Real World
TTITLE1=Alan Jackson - Wanted
TTITLE2=Alan Jackson - Chasin' That Neon Rainbow
TTITLE3=Alan Jackson - I'd Love You All Over Again
TTITLE4=Alan Jackson - Don't Rock The Jukebox
TTITLE5=Alan Jackson - Someday
TTITLE6=Alan Jackson - Dallas
TTITLE7=Alan Jackson - Midnight In Montgomery
TTITLE8=Alan Jackson - Love's Got A Hold On You
TTITLE9=Alan Jackson - She's Got The Rhythm And I Got The
TTITLE10=Alan Jackson - Tonight I Climbed The Wall
TTITLE11=Alan Jackson - Chatahoochie
TTITLE12=Alan Jackson - Who Says You Can't Have It All
TTITLE13=Alan Jackson - Mercury Blues
TTITLE14=Alan Jackson - Tequila Sunrise
EXTD=
EXTT0=
EXTT1=
EXTT2=
EXTT3=
EXTT4=
EXTT5=
EXTT6=
EXTT7=
EXTT8=
EXTT9=
EXTT10=
EXTT11=
EXTT12=
EXTT13=
EXTT14=
PLAYORDER=
